<svg width="31" height="31" fill="none" xmlns="http://www.w3.org/2000/svg">
    <path fill-rule="evenodd" clip-rule="evenodd"
          d="M14.8018.0867008C17.9453.0121627 21.0333.922382 23.6339 2.68995c2.6005 1.76756 4.5833 4.304 5.6711 7.25432 1.0877 2.95033 1.2259 6.16693.3952 9.19963-.3676 1.3422-1.7536 2.1322-3.0957 1.7646-1.3422-.3676-2.1322-1.7537-1.7646-3.0958.5531-2.0192.4611-4.1609-.2631-6.1252-.7243-1.96435-2.0444-3.65304-3.7757-4.82979-1.7313-1.17676-3.7872-1.78271-5.8798-1.73309-2.0927.04962-4.1175.75233-5.79108 2.00983-1.6736 1.2575-2.91226 3.00685-3.54257 5.00335-.63031 1.9964-.62073 4.14.02741 6.1308.64813 1.9907 1.90238 3.729 3.58716 4.9714 1.68478 1.2425 3.71578 1.9271 5.80878 1.958 1.3914.0206 2.5027 1.1652 2.4822 2.5566-.0206 1.3915-1.1652 2.5028-2.5566 2.4822-3.144-.0464-6.19476-1.0748-8.72539-2.941-2.53062-1.8663-4.41446-4.4771-5.387924-7.4671-.973464-2.99-.987855-6.2095-.041162-9.2081C1.72882 7.62203 3.58924 4.99447 6.10308 3.10564l1.51357 2.0144-1.51357-2.0144C8.61692 1.2168 11.6584.161239 14.8018.0867008Z"
          fill="#121920"/>
    <path d="M26.4992 24.9706c0 2.1098-1.7104 3.8202-3.8203 3.8202-2.1098 0-3.8202-1.7104-3.8202-3.8202s1.7104-3.8202 3.8202-3.8202c2.1099 0 3.8203 1.7104 3.8203 3.8202Z"
          fill="#F95A59"/>
</svg>