<svg width="136" height="31" fill="none" xmlns="http://www.w3.org/2000/svg">
    <g clip-path="url(#a)">
        <path fill-rule="evenodd" clip-rule="evenodd"
              d="M14.8018.0867008C17.9453.0121627 21.0333.922382 23.6339 2.68995c2.6005 1.76756 4.5833 4.304 5.6711 7.25432 1.0877 2.95033 1.2259 6.16693.3952 9.19963-.3676 1.3422-1.7536 2.1322-3.0957 1.7646-1.3422-.3676-2.1322-1.7537-1.7646-3.0958.5531-2.0192.4611-4.1609-.2631-6.1252-.7243-1.96435-2.0444-3.65304-3.7757-4.82979-1.7313-1.17676-3.7872-1.78271-5.8798-1.73309-2.0927.04962-4.1175.75233-5.79108 2.00983-1.6736 1.2575-2.91226 3.00685-3.54257 5.00335-.63031 1.9964-.62073 4.14.02741 6.1308.64813 1.9907 1.90238 3.729 3.58716 4.9714 1.68478 1.2425 3.71578 1.9271 5.80878 1.958 1.3914.0206 2.5027 1.1652 2.4822 2.5566-.0206 1.3915-1.1652 2.5028-2.5566 2.4822-3.144-.0464-6.19476-1.0748-8.72539-2.941-2.53062-1.8663-4.41446-4.4771-5.387924-7.4671-.973464-2.99-.987855-6.2095-.041162-9.2081C1.72882 7.62203 3.58924 4.99447 6.10308 3.10564l1.51357 2.0144-1.51357-2.0144C8.61692 1.2168 11.6584.161239 14.8018.0867008Z"
              fill="#121920"/>
        <path d="M26.4992 24.9706c0 2.1098-1.7104 3.8202-3.8203 3.8202-2.1098 0-3.8202-1.7104-3.8202-3.8202s1.7104-3.8202 3.8202-3.8202c2.1099 0 3.8203 1.7104 3.8203 3.8202Z"
              fill="#F95A59"/>
        <path fill-rule="evenodd" clip-rule="evenodd"
              d="M60.8326 24.1173h-4.9797l-.7036-.9202c-.9743.3789-1.8404.6495-2.5981.866-.7578.1624-1.5697.2707-2.4899.2707-3.0311 0-5.4127-.7578-7.0907-2.2193-1.7862-1.5155-2.6522-3.843-2.6522-6.82 0-3.0311.8119-5.35859 2.3816-6.92828 1.6238-1.56969 4.0595-2.3816 7.3613-2.3816 3.1935 0 5.6292.86604 7.3072 2.54398 1.4614 1.46144 2.1651 3.3559 2.1651 5.6292 0 1.678-.0542 2.9229-.2165 3.6807-.2165 1.1908-.7578 2.3275-1.5156 3.3559l3.0311 2.9229Zm-5.6833-8.9852c0-1.6238-.3248-2.9228-1.0285-3.9513-.866-1.29902-2.2733-1.94854-4.1136-1.94854-1.7321 0-3.0853.48714-3.9513 1.51554-.866.9743-1.2991 2.4357-1.2991 4.3302 0 2.111.4872 3.6807 1.5156 4.6549.9202.8661 2.2733 1.2991 4.0595 1.2991 1.6239 0 2.8147-.4871 3.6266-1.4614.8119-1.0285 1.1908-2.4899 1.1908-4.4385ZM79.6152 18.5421c0 1.5697-.5413 2.8688-1.5697 3.9513-1.0284 1.0826-2.3275 1.5697-3.9513 1.5697H61.6449v-3.1935h10.3384c.7036 0 1.299-.1624 1.732-.4871.5413-.3789.8119-.8661.8119-1.5156 0-1.5156-1.0825-2.2733-3.1935-2.2733h-5.1962c-1.5156 0-2.8146-.4872-3.9513-1.4073-1.1367-.9202-1.6779-2.111-1.6779-3.5724 0-1.5697.5412-2.86879 1.6779-3.84308 1.0826-.97429 2.544-1.46143 4.3843-1.46143h11.9622v3.03112h-10.609c-.4871 0-.9743.21651-1.4073.5954-.5413.37889-.7578.86599-.7578 1.40729 0 .5954.2165 1.1367.7037 1.5156.4871.433 1.0284.5954 1.6779.5954h5.7375c1.7862 0 3.1935.4871 4.2219 1.4073 1.0285.9202 1.5156 2.1651 1.5156 3.6806ZM100.075 15.1321c0 3.4642-.9741 5.8999-2.8685 7.4155-1.5697 1.1908-3.843 1.7862-6.7659 1.7862-3.3018 0-5.7375-.7037-7.3072-2.0569-1.7321-1.5155-2.5981-3.9513-2.5981-7.3071 0-2.7605.7578-4.9256 2.3275-6.44119 1.6779-1.67794 4.1678-2.48985 7.5237-2.48985 3.6806 0 6.2246.81191 7.7402 2.3816 1.299 1.40731 1.9483 3.62654 1.9483 6.71174Zm-4.5465-.1082c0-1.7321-.433-3.1394-1.2449-4.1678-.9201-1.13669-2.3275-1.73209-4.1137-1.73209-1.7862 0-3.1393.5954-4.0595 1.84029-.7578 1.0285-1.1367 2.3816-1.1367 4.0055 0 1.8944.3248 3.3017.9202 4.2219.866 1.2449 2.3816 1.8944 4.7091 1.8944 1.9485 0 3.3017-.5954 4.0595-1.8403.5954-.866.866-2.3275.866-4.2219ZM117.883 16.6477H105.65v7.3613h-4.384V13.1294c0-.6495.108-1.4073.379-2.2192.487-1.46143 1.407-2.54398 2.76-3.30176 1.57-.86603 4.168-1.29905 7.74-1.29905h22.896v2.977h-6.603V24.009h-4.114V9.28639c-4.222 0-8.227-.05413-12.449-.05413-1.624 0-2.761.10825-3.41.27064-1.137.27063-1.895.9202-2.382 1.8403-.379.7037-.541 1.4615-.541 2.3275h12.341v2.977Z"
              fill="#F95A59"/>
    </g>
    <defs>
        <clipPath id="a">
            <path fill="#fff" d="M0 0h135.041v30.3184H0z"/>
        </clipPath>
    </defs>
</svg>